<?xml version="1.0" encoding="UTF-8"?>
<svg xmlns="http://www.w3.org/2000/svg" xmlns:xlink="http://www.w3.org/1999/xlink" viewBox="0 0 100 100" width="60px" height="60px">
<g id="surface1944953">
<path style=" stroke:none;fill-rule:nonzero;fill:rgb(100%,100%,100%);fill-opacity:1;" d="M 50 4 C 24.617188 4 4 24.617188 4 50 C 4 75.382812 24.617188 96 50 96 C 75.382812 96 96 75.382812 96 50 C 96 24.617188 75.382812 4 50 4 Z M 50 8 C 73.21875 8 92 26.78125 92 50 C 92 73.21875 73.21875 92 50 92 C 26.78125 92 8 73.21875 8 50 C 8 26.78125 26.78125 8 50 8 Z M 49.875 21.5625 C 49.585938 21.601562 49.273438 21.71875 49 21.875 L 47.1875 22.9375 C 46.109375 23.5625 45.75 24.984375 46.375 26.0625 L 62.0625 53.0625 L 67.8125 49.6875 L 52.125 22.6875 C 51.65625 21.882812 50.75 21.453125 49.875 21.5625 Z M 45.0625 30.5625 C 44.1875 30.445312 43.28125 30.8125 42.8125 31.625 L 40.8125 35.0625 L 46.75 38.5 L 48.75 35.125 C 49.382812 34.046875 49.015625 32.632812 47.9375 32 L 45.9375 30.8125 C 45.664062 30.65625 45.351562 30.601562 45.0625 30.5625 Z M 40.3125 35.875 L 26.5 59.625 L 32.375 63.0625 L 46.25 39.375 Z M 20.625 46.625 L 20.625 53.25 L 29.0625 53.25 L 32.9375 46.625 Z M 42.875 46.625 L 39.1875 53.25 L 60.6875 53.25 L 57 46.625 Z M 67.4375 46.625 L 71 53.25 L 79.25 53.25 L 79.25 46.625 Z M 68.4375 50.8125 L 62.6875 54.125 L 66 59.875 L 71.75 56.5 Z M 71.5 58.0625 C 71.304688 58.09375 71.070312 58.203125 70.875 58.3125 C 69.9375 58.84375 68.570312 59.632812 67.75 60.125 C 66.210938 61.046875 67.398438 63.726562 67.75 64.3125 C 69.742188 67.648438 71.765625 67.203125 73.3125 69.5625 C 74.164062 70.851562 73.921875 71.382812 74.1875 71.8125 C 74.289062 71.96875 74.679688 72.179688 74.8125 72 C 77.203125 68.695312 76.476562 62.96875 74.75 60.4375 C 74.046875 59.40625 72.851562 57.84375 71.5 58.0625 Z M 25.75 60.875 L 22.875 71.6875 C 22.820312 71.882812 22.890625 72.085938 23.0625 72.1875 C 23.234375 72.289062 23.484375 72.265625 23.625 72.125 L 31.625 64.375 Z M 25.75 60.875 "/>
</g>
</svg>
