<?xml version="1.0" encoding="UTF-8"?>
<svg xmlns="http://www.w3.org/2000/svg" xmlns:xlink="http://www.w3.org/1999/xlink" viewBox="0 0 100 100" width="70px" height="70px">
<g id="surface1940658">
<path style=" stroke:none;fill-rule:nonzero;fill:rgb(100%,100%,100%);fill-opacity:1;" d="M 23.835938 14 C 21.511719 14 19 15.847656 19 18.835938 L 19 81.484375 C 19 84.472656 21.511719 86.320312 23.835938 86.320312 C 24.652344 86.320312 25.441406 86.113281 26.175781 85.707031 L 82.515625 54.382812 C 84.070312 53.519531 85 51.941406 85 50.160156 C 85 48.386719 84.074219 46.808594 82.519531 45.9375 L 26.175781 14.617188 C 25.445312 14.207031 24.65625 14 23.835938 14 Z M 23.835938 16 C 24.3125 16 24.769531 16.121094 25.203125 16.363281 L 65.441406 38.734375 L 55.308594 48.976562 L 44.863281 38.34375 C 44.671875 38.148438 44.355469 38.144531 44.15625 38.335938 C 43.960938 38.53125 43.960938 38.847656 44.152344 39.042969 L 54.605469 49.6875 L 38.441406 66.023438 C 38.25 66.21875 38.25 66.535156 38.445312 66.730469 C 38.546875 66.828125 38.671875 66.875 38.800781 66.875 C 38.929688 66.875 39.058594 66.824219 39.152344 66.726562 L 55.308594 50.398438 L 65.996094 61.28125 L 25.203125 83.957031 C 24.769531 84.199219 24.3125 84.320312 23.835938 84.320312 C 23.289062 84.320312 22.726562 84.140625 22.242188 83.8125 L 34.230469 71.699219 C 34.425781 71.503906 34.421875 71.1875 34.226562 70.992188 C 34.03125 70.800781 33.710938 70.800781 33.519531 70.996094 L 21.519531 83.125 C 21.199219 82.683594 21 82.128906 21 81.484375 L 21 18.835938 C 21 17.855469 21.46875 17.097656 22.109375 16.605469 L 35.742188 30.484375 C 35.839844 30.582031 35.972656 30.632812 36.101562 30.632812 C 36.230469 30.632812 36.351562 30.585938 36.449219 30.488281 C 36.648438 30.296875 36.648438 29.980469 36.457031 29.78125 L 23.042969 16.128906 C 23.304688 16.050781 23.570312 16 23.835938 16 Z M 24.5 22.878906 C 24.222656 22.878906 24 23.101562 24 23.378906 L 24 39.808594 C 24 40.085938 24.222656 40.308594 24.5 40.308594 C 24.777344 40.308594 25 40.085938 25 39.808594 L 25 23.378906 C 25 23.101562 24.777344 22.878906 24.5 22.878906 Z M 41.011719 34.628906 C 40.882812 34.628906 40.753906 34.675781 40.65625 34.769531 C 40.460938 34.964844 40.457031 35.28125 40.648438 35.480469 L 42.050781 36.902344 C 42.148438 37.003906 42.277344 37.054688 42.40625 37.054688 C 42.535156 37.054688 42.660156 37.003906 42.757812 36.910156 C 42.953125 36.71875 42.957031 36.398438 42.765625 36.203125 L 41.363281 34.777344 C 41.265625 34.679688 41.140625 34.628906 41.011719 34.628906 Z M 66.351562 39.238281 L 81.546875 47.6875 C 82.457031 48.195312 83 49.121094 83 50.164062 C 83 51.203125 82.457031 52.128906 81.546875 52.636719 L 66.902344 60.777344 L 56.011719 49.691406 Z M 66.582031 42.847656 C 66.386719 42.824219 66.191406 42.917969 66.089844 43.097656 C 65.957031 43.339844 66.042969 43.644531 66.285156 43.777344 L 67.890625 44.671875 C 67.964844 44.714844 68.046875 44.734375 68.132812 44.734375 C 68.304688 44.734375 68.476562 44.640625 68.570312 44.476562 C 68.703125 44.234375 68.617188 43.933594 68.375 43.796875 L 66.769531 42.902344 C 66.710938 42.871094 66.648438 42.851562 66.582031 42.847656 Z M 70.734375 45.152344 C 70.539062 45.132812 70.34375 45.226562 70.246094 45.40625 C 70.109375 45.648438 70.195312 45.953125 70.4375 46.085938 L 75.402344 48.847656 C 75.886719 49.117188 76.175781 49.605469 76.175781 50.160156 C 76.175781 50.710938 75.886719 51.203125 75.402344 51.472656 L 67.628906 55.796875 C 67.386719 55.929688 67.296875 56.234375 67.433594 56.476562 C 67.523438 56.640625 67.695312 56.734375 67.871094 56.734375 C 67.953125 56.734375 68.035156 56.714844 68.113281 56.671875 L 75.890625 52.347656 C 76.695312 51.898438 77.175781 51.082031 77.175781 50.160156 C 77.175781 49.238281 76.695312 48.421875 75.890625 47.976562 L 70.925781 45.214844 C 70.863281 45.179688 70.800781 45.160156 70.734375 45.152344 Z M 24.5 49.390625 C 24.222656 49.390625 24 49.613281 24 49.890625 L 24 76.949219 C 24 77.222656 24.222656 77.449219 24.5 77.449219 C 24.777344 77.449219 25 77.222656 25 76.949219 L 25 49.890625 C 25 49.613281 24.777344 49.390625 24.5 49.390625 Z M 24.5 49.390625 "/>
</g>
</svg>
